HIERARCHY
ROOT joint_0
{
	OFFSET 0.000000 0.000000 0.000000
	CHANNELS 6 Xposition Yposition Zposition Zrotation Yrotation Xrotation 
	JOINT joint_1
	{
		OFFSET 0.587158 0.057678 95.682007
		CHANNELS 3 Zrotation Yrotation Xrotation
		JOINT joint_2
		{
			OFFSET -7.116699 -0.219910 87.157959
			CHANNELS 3 Zrotation Yrotation Xrotation
			JOINT joint_3
			{
				OFFSET -5.892822 -0.290222 87.151001
				CHANNELS 3 Zrotation Yrotation Xrotation
				JOINT joint_4
				{
					OFFSET 5.544678 -0.099609 123.768066
					CHANNELS 3 Zrotation Yrotation Xrotation
					JOINT joint_5
					{
						OFFSET 41.981201 4.519775 84.257935
						CHANNELS 3 Zrotation Yrotation Xrotation
						End Site
						{
							OFFSET 0.000000 0.000000 0.000000
						}
					}
				}
				JOINT joint_6
				{
					OFFSET 3.940918 -26.976501 69.308105
					CHANNELS 3 Zrotation Yrotation Xrotation
					JOINT joint_7
					{
						OFFSET 4.776123 -152.592468 -16.842041
						CHANNELS 3 Zrotation Yrotation Xrotation
						JOINT joint_8
						{
							OFFSET 54.421875 -30.424072 -248.864014
							CHANNELS 3 Zrotation Yrotation Xrotation
							JOINT joint_9
							{
								OFFSET 42.120117 -33.387878 -236.524963
								CHANNELS 3 Zrotation Yrotation Xrotation
								End Site
								{
									OFFSET 0.000000 0.000000 0.000000
								}
							}
						}
					}
				}
				JOINT joint_10
				{
					OFFSET 2.312012 26.904114 69.425049
					CHANNELS 3 Zrotation Yrotation Xrotation
					JOINT joint_11
					{
						OFFSET 0.971436 152.197815 -20.626953
						CHANNELS 3 Zrotation Yrotation Xrotation
						JOINT joint_12
						{
							OFFSET 49.954102 28.991455 -249.970093
							CHANNELS 3 Zrotation Yrotation Xrotation
							JOINT joint_13
							{
								OFFSET 48.146973 19.598389 -236.919922
								CHANNELS 3 Zrotation Yrotation Xrotation
								End Site
								{
									OFFSET 0.000000 0.000000 0.000000
								}
							}
						}
					}
				}
			}
		}
	}
	JOINT joint_14
	{
		OFFSET 16.305664 -89.442932 -108.224976
		CHANNELS 3 Zrotation Yrotation Xrotation
		JOINT joint_15
		{
			OFFSET -22.282471 13.437134 -412.904968
			CHANNELS 3 Zrotation Yrotation Xrotation
			JOINT joint_16
			{
				OFFSET -45.426025 14.484802 -445.892029
				CHANNELS 3 Zrotation Yrotation Xrotation
				JOINT joint_17
				{
					OFFSET 173.389404 -9.944031 -76.473001
					CHANNELS 3 Zrotation Yrotation Xrotation
					End Site
					{
						OFFSET 0.000000 0.000000 0.000000
					}
				}
			}
		}
	}
	JOINT joint_18
	{
		OFFSET 13.392822 89.408875 -108.653992
		CHANNELS 3 Zrotation Yrotation Xrotation
		JOINT joint_19
		{
			OFFSET -29.032959 24.483521 -411.977966
			CHANNELS 3 Zrotation Yrotation Xrotation
			JOINT joint_20
			{
				OFFSET -30.530029 28.986328 -446.453018
				CHANNELS 3 Zrotation Yrotation Xrotation
				JOINT joint_21
				{
					OFFSET 170.330078 33.400757 -76.698997
					CHANNELS 3 Zrotation Yrotation Xrotation
					End Site
					{
						OFFSET 0.000000 0.000000 0.000000
					}
				}
			}
		}
	}
}
MOTION
Frames: 13
Frame Time: 0.016667
-2776.666260 923.228210 1064.381958 -2.821676 8.402853 -0.930042 -0.550850 -7.031438 0.883388 -0.419184 1.052745 -0.207262 -0.381120 -1.361113 0.185304 -4.235886 -9.142919 9.899021 0.000000 0.000000 0.000000 -1.697040 2.514229 2.376028 -0.431841 2.245164 -1.707150 0.224360 -3.457499 -1.707156 0.000000 0.000000 0.000000 1.302470 3.917090 0.971076 0.378868 3.810218 -1.175906 -0.777953 -4.692075 -2.013026 0.000000 0.000000 0.000000 -2.319265 -9.249905 -5.103395 -2.554897 -6.143764 0.707315 -2.088951 8.442141 -0.413233 0.000000 0.000000 0.000000 3.663779 -9.280721 1.058341 4.449082 -0.758054 0.365156 4.538454 1.953844 1.649088 0.000000 0.000000 0.000000 
-2776.912842 922.979919 1064.359009 -2.812553 8.377001 -0.915952 -0.553061 -7.026022 0.897237 -0.423773 1.050696 -0.209983 -0.385538 -1.359254 0.186411 -4.232454 -9.134163 9.889200 0.000000 0.000000 0.000000 -1.697632 2.520281 2.357189 -0.431452 2.251695 -1.704849 0.225406 -3.466045 -1.709112 0.000000 0.000000 0.000000 1.303360 3.929960 0.937669 0.380570 3.822888 -1.175458 -0.777946 -4.703546 -2.008492 0.000000 0.000000 0.000000 -2.321885 -9.251121 -5.102732 -2.556785 -6.109000 0.705478 -2.091600 8.410429 -0.416254 0.000000 0.000000 0.000000 3.662293 -9.275002 1.059964 4.447002 -0.745442 0.367999 4.536838 1.966329 1.645913 0.000000 0.000000 0.000000 
-2777.139893 922.734009 1064.334961 -2.805514 8.350715 -0.902286 -0.555095 -7.022486 0.909537 -0.427916 1.048896 -0.211502 -0.389613 -1.357296 0.187192 -4.228696 -9.123866 9.878546 0.000000 0.000000 0.000000 -1.698781 2.525852 2.340631 -0.431789 2.257607 -1.704901 0.226648 -3.471732 -1.707368 0.000000 0.000000 0.000000 1.305169 3.941122 0.902598 0.382092 3.833676 -1.173587 -0.776719 -4.708687 -2.000182 0.000000 0.000000 0.000000 -2.323659 -9.249302 -5.101797 -2.557956 -6.077417 0.703252 -2.093587 8.379821 -0.418927 0.000000 0.000000 0.000000 3.661697 -9.267075 1.061624 4.445577 -0.733283 0.371248 4.535847 1.977928 1.643190 0.000000 0.000000 0.000000 
-2777.340820 922.491882 1064.308960 -2.801280 8.322680 -0.889539 -0.556302 -7.022164 0.921461 -0.431043 1.047871 -0.212265 -0.392716 -1.355425 0.187885 -4.224594 -9.109126 9.866270 0.000000 0.000000 0.000000 -1.702048 2.531843 2.327360 -0.433991 2.263581 -1.711354 0.228879 -3.474623 -1.697406 0.000000 0.000000 0.000000 1.307601 3.949256 0.862922 0.383164 3.841233 -1.169299 -0.772794 -4.700092 -1.983391 0.000000 0.000000 0.000000 -2.323992 -9.240796 -5.099715 -2.557881 -6.052620 0.699393 -2.094469 8.352194 -0.420956 0.000000 0.000000 0.000000 3.662316 -9.254554 1.062716 4.444676 -0.722502 0.376969 4.535568 1.988841 1.640920 0.000000 0.000000 0.000000 
-2777.521240 922.254089 1064.281982 -2.798802 8.294311 -0.877578 -0.557302 -7.023874 0.933756 -0.433947 1.046788 -0.213375 -0.395587 -1.353616 0.188257 -4.220052 -9.091715 9.852715 0.000000 0.000000 0.000000 -1.705948 2.537625 2.316380 -0.436835 2.269192 -1.719831 0.231164 -3.474622 -1.684552 0.000000 0.000000 0.000000 1.310863 3.955992 0.821298 0.384138 3.847240 -1.163406 -0.767688 -4.685468 -1.962884 0.000000 0.000000 0.000000 -2.323682 -9.229133 -5.096977 -2.557269 -6.031361 0.695019 -2.094866 8.325815 -0.422705 0.000000 0.000000 0.000000 3.663563 -9.240089 1.064073 4.444203 -0.711965 0.383391 4.535736 1.999322 1.638934 0.000000 0.000000 0.000000 
-2777.697021 922.023682 1064.251953 -2.797937 8.265393 -0.865220 -0.558477 -7.022418 0.946779 -0.437196 1.045145 -0.215255 -0.398745 -1.352659 0.188797 -4.215642 -9.077727 9.840234 0.000000 0.000000 0.000000 -1.708416 2.543028 2.306147 -0.439457 2.274537 -1.728515 0.233600 -3.477828 -1.673821 0.000000 0.000000 0.000000 1.315586 3.962897 0.780608 0.385114 3.853244 -1.158479 -0.763181 -4.674826 -1.943948 0.000000 0.000000 0.000000 -2.322841 -9.218805 -5.095920 -2.556173 -6.006086 0.691874 -2.094788 8.295917 -0.424451 0.000000 0.000000 0.000000 3.665582 -9.225733 1.064475 4.444589 -0.698907 0.389901 4.536409 2.007412 1.637644 0.000000 0.000000 0.000000 
-2777.873535 921.803223 1064.218994 -2.800043 8.237031 -0.851666 -0.560159 -7.019909 0.960144 -0.441034 1.044564 -0.217751 -0.402358 -1.349627 0.190238 -4.210122 -9.071692 9.827261 0.000000 0.000000 0.000000 -1.709170 2.546054 2.295571 -0.441037 2.277645 -1.736056 0.235817 -3.486697 -1.669688 0.000000 0.000000 0.000000 1.322842 3.969696 0.740689 0.386294 3.858848 -1.154389 -0.760163 -4.673382 -1.929098 0.000000 0.000000 0.000000 -2.321525 -9.213949 -5.097535 -2.554532 -5.972559 0.690371 -2.094193 8.260984 -0.426261 0.000000 0.000000 0.000000 3.668543 -9.213970 1.062828 4.446262 -0.680999 0.396441 4.537782 2.012080 1.637337 0.000000 0.000000 0.000000 
-2778.045410 921.590088 1064.182983 -2.804443 8.208077 -0.837720 -0.561893 -7.014320 0.972901 -0.444827 1.043367 -0.218898 -0.406066 -1.347465 0.191186 -4.204507 -9.067554 9.814635 0.000000 0.000000 0.000000 -1.708793 2.548488 2.285633 -0.442411 2.280235 -1.743791 0.238006 -3.497582 -1.667631 0.000000 0.000000 0.000000 1.331006 3.976782 0.701459 0.387511 3.864638 -1.151187 -0.757734 -4.675840 -1.915807 0.000000 0.000000 0.000000 -2.319687 -9.210579 -5.100818 -2.552429 -5.935002 0.690239 -2.093141 8.222632 -0.428070 0.000000 0.000000 0.000000 3.672488 -9.202216 1.060214 4.449004 -0.660428 0.403059 4.539871 2.014564 1.637780 0.000000 0.000000 0.000000 
-2778.200684 921.381104 1064.146973 -2.805766 8.179365 -0.824344 -0.564185 -7.009078 0.987879 -0.449557 1.041874 -0.222588 -0.410446 -1.344748 0.193388 -4.198723 -9.065773 9.801962 0.000000 0.000000 0.000000 -1.708887 2.551681 2.276660 -0.444000 2.283517 -1.751841 0.240242 -3.507485 -1.664424 0.000000 0.000000 0.000000 1.337343 3.984513 0.662833 0.388556 3.871320 -1.149296 -0.755665 -4.678125 -1.904399 0.000000 0.000000 0.000000 -2.318524 -9.205221 -5.103299 -2.550943 -5.898707 0.689069 -2.092773 8.183960 -0.430191 0.000000 0.000000 0.000000 3.675227 -9.190371 1.058467 4.450659 -0.639347 0.409283 4.540746 2.015682 1.637946 0.000000 0.000000 0.000000 
-2778.337891 921.173340 1064.112061 -2.802093 8.149172 -0.812157 -0.568466 -7.003259 1.005122 -0.456598 1.041496 -0.226978 -0.417051 -1.342398 0.196062 -4.192553 -9.064740 9.788742 0.000000 0.000000 0.000000 -1.705418 2.555802 2.270112 -0.446832 2.288062 -1.763443 0.243280 -3.515618 -1.654916 0.000000 0.000000 0.000000 1.343384 3.993425 0.625103 0.389324 3.879212 -1.149183 -0.754175 -4.678914 -1.896511 0.000000 0.000000 0.000000 -2.318525 -9.194520 -5.103574 -2.550549 -5.865684 0.685797 -2.093594 8.146192 -0.432773 0.000000 0.000000 0.000000 3.676021 -9.176428 1.059211 4.450466 -0.617915 0.414331 4.539610 2.015277 1.637508 0.000000 0.000000 0.000000 
-2778.459229 920.969604 1064.078003 -2.795613 8.119213 -0.800625 -0.574317 -6.997608 1.023597 -0.465380 1.040885 -0.231840 -0.425321 -1.340268 0.199518 -4.185717 -9.064047 9.774369 0.000000 0.000000 0.000000 -1.698250 2.560741 2.264237 -0.450082 2.293837 -1.775775 0.246363 -3.522215 -1.643720 0.000000 0.000000 0.000000 1.350579 4.003404 0.586964 0.390061 3.888017 -1.149656 -0.753103 -4.679407 -1.890856 0.000000 0.000000 0.000000 -2.319277 -9.182169 -5.103034 -2.550840 -5.833581 0.681693 -2.095129 8.108683 -0.435647 0.000000 0.000000 0.000000 3.675904 -9.162451 1.060770 4.449475 -0.595970 0.419074 4.537567 2.013800 1.636874 0.000000 0.000000 0.000000 
-2778.562744 920.767151 1064.043945 -2.789062 8.093714 -0.789540 -0.579546 -6.997183 1.039899 -0.473087 1.041697 -0.235013 -0.432716 -1.339484 0.201568 -4.179905 -9.062895 9.761804 0.000000 0.000000 0.000000 -1.692091 2.566703 2.258315 -0.452447 2.300600 -1.783137 0.247586 -3.521812 -1.636872 0.000000 0.000000 0.000000 1.358176 4.013400 0.549962 0.390603 3.896774 -1.150605 -0.751249 -4.677903 -1.881963 0.000000 0.000000 0.000000 -2.320179 -9.173291 -5.102477 -2.551250 -5.802324 0.678509 -2.096684 8.071818 -0.438493 0.000000 0.000000 0.000000 3.675581 -9.152682 1.062602 4.448749 -0.573420 0.423661 4.535693 2.011764 1.636419 0.000000 0.000000 0.000000 
-2778.652344 920.564636 1064.012939 -2.782938 8.073743 -0.779397 -0.583265 -7.001486 1.053807 -0.478886 1.040900 -0.237604 -0.438287 -1.338730 0.203265 -4.175735 -9.059157 9.751851 0.000000 0.000000 0.000000 -1.688269 2.573690 2.251050 -0.453065 2.308278 -1.781775 0.245450 -3.510226 -1.639200 0.000000 0.000000 0.000000 1.363496 4.022395 0.512202 0.391128 3.904821 -1.150360 -0.747807 -4.672293 -1.866540 0.000000 0.000000 0.000000 -2.320965 -9.169951 -5.101988 -2.551472 -5.771074 0.677326 -2.097791 8.038132 -0.440963 0.000000 0.000000 0.000000 3.675314 -9.148521 1.065066 4.448668 -0.550687 0.428299 4.534521 2.010775 1.636065 0.000000 0.000000 0.000000 
